<svg width="105" height="119" viewBox="0 0 105 119" fill="none" xmlns="http://www.w3.org/2000/svg">
<g filter="url(#filter0_d_1_186)">
<path fill-rule="evenodd" clip-rule="evenodd" d="M85.9166 51.4373C84.166 47.377 81.634 43.5735 78.3207 40.2561L55.7071 17.6149C54.146 16.0518 51.6149 16.0518 50.0538 17.6149L27.4402 40.2561C17.6607 50.0476 14.6881 64.0735 18.5224 76.4392C22.9817 91.2662 36.7305 102.088 53 102.088C72.8823 102.088 89 85.9264 89 66.0442C89 60.8469 87.8987 55.9039 85.9166 51.4373Z" fill="#3C91E6"/>
</g>
<path d="M66.8125 64.4375C66.8125 64.9375 66.5625 65.3333 66.0625 65.625C65.5625 65.875 64.9792 66.0833 64.3125 66.25C63.6458 66.375 62.9792 66.4583 62.3125 66.5C61.6458 66.5417 61.1667 66.5625 60.875 66.5625C60.0417 66.6042 59.2083 66.6458 58.375 66.6875C57.5833 66.6875 56.7917 66.6875 56 66.6875C55.9583 66.9792 55.9167 67.4375 55.875 68.0625C55.875 68.6458 55.8333 69.3333 55.75 70.125C55.7083 70.875 55.625 71.6667 55.5 72.5C55.4167 73.2917 55.2708 74.0208 55.0625 74.6875C54.8542 75.3542 54.6042 75.9167 54.3125 76.375C54.0625 76.8333 53.7292 77.0833 53.3125 77.125C52.7292 77.1667 52.2292 76.7292 51.8125 75.8125C51.4375 74.8958 51.125 73.8542 50.875 72.6875C50.625 71.4792 50.4375 70.3125 50.3125 69.1875C50.1875 68.0625 50.1042 67.3125 50.0625 66.9375C49.6042 66.9375 48.7917 66.9375 47.625 66.9375C46.4583 66.8958 45.25 66.8333 44 66.75C42.75 66.625 41.6458 66.4375 40.6875 66.1875C39.7292 65.8958 39.25 65.4792 39.25 64.9375C39.25 64.1875 39.75 63.625 40.75 63.25C41.75 62.875 42.8958 62.625 44.1875 62.5C45.4792 62.3333 46.7292 62.2708 47.9375 62.3125C49.1875 62.3125 50.0417 62.3125 50.5 62.3125V61.125C50.5 60.7083 50.5208 59.9792 50.5625 58.9375C50.6458 57.8958 50.7917 56.8333 51 55.75C51.25 54.6667 51.5625 53.7292 51.9375 52.9375C52.3542 52.1042 52.9167 51.6875 53.625 51.6875C54.2083 51.6875 54.6667 52.1667 55 53.125C55.3333 54.0833 55.5625 55.1667 55.6875 56.375C55.8542 57.5833 55.9375 58.7708 55.9375 59.9375C55.9792 61.0625 56 61.8125 56 62.1875C56.7917 62.2292 57.5833 62.2708 58.375 62.3125C59.1667 62.3125 59.9583 62.3333 60.75 62.375C61.0417 62.375 61.5208 62.3958 62.1875 62.4375C62.8542 62.4792 63.5208 62.5833 64.1875 62.75C64.8958 62.875 65.5 63.0833 66 63.375C66.5417 63.625 66.8125 63.9792 66.8125 64.4375Z" fill="white"/>
<defs>
<filter id="filter0_d_1_186" x="0.902527" y="0.442566" width="104.097" height="117.646" filterUnits="userSpaceOnUse" color-interpolation-filters="sRGB">
<feFlood flood-opacity="0" result="BackgroundImageFix"/>
<feColorMatrix in="SourceAlpha" type="matrix" values="0 0 0 0 0 0 0 0 0 0 0 0 0 0 0 0 0 0 127 0" result="hardAlpha"/>
<feOffset/>
<feGaussianBlur stdDeviation="8"/>
<feComposite in2="hardAlpha" operator="out"/>
<feColorMatrix type="matrix" values="0 0 0 0 0.235294 0 0 0 0 0.568627 0 0 0 0 0.901961 0 0 0 0.2 0"/>
<feBlend mode="normal" in2="BackgroundImageFix" result="effect1_dropShadow_1_186"/>
<feBlend mode="normal" in="SourceGraphic" in2="effect1_dropShadow_1_186" result="shape"/>
</filter>
</defs>
</svg>
